<?xml version="1.0" standalone="no"?>
<!DOCTYPE svg PUBLIC "-//W3C//DTD SVG 20010904//EN"
 "http://www.w3.org/TR/2001/REC-SVG-20010904/DTD/svg10.dtd">
<svg version="1.0" xmlns="http://www.w3.org/2000/svg"
 width="2081.000000pt" height="703.000000pt" viewBox="0 0 2081.000000 703.000000"
 preserveAspectRatio="xMidYMid meet">

<g transform="translate(0.000000,703.000000) scale(0.100000,-0.100000)"
fill="#362860" stroke="none">
<path d="M3010 7004 c-52 -8 -144 -24 -205 -37 l-110 -22 -3 -770 -2 -770
-539 539 -539 539 -103 -71 c-57 -39 -142 -101 -188 -138 l-84 -66 727 -727
726 -726 0 -508 c0 -279 -3 -507 -7 -507 -5 0 -445 437 -979 971 l-971 971
-75 -103 c-78 -107 -178 -263 -178 -276 0 -5 214 -222 475 -483 261 -261 475
-478 475 -482 0 -5 -303 -8 -674 -8 l-673 0 -12 -57 c-21 -100 -49 -266 -57
-330 l-7 -63 706 0 c451 0 734 -4 783 -11 514 -71 953 -433 1114 -917 68 -207
64 -100 70 -1552 l5 -1315 55 -12 c79 -18 265 -50 337 -59 l63 -7 2 1339 3
1339 370 0 370 0 3 -1338 2 -1337 23 0 c33 0 188 25 315 50 l112 23 0 668 c0
368 3 669 7 669 5 0 222 -214 483 -475 l475 -474 146 97 c80 53 165 112 188
131 l43 34 -671 671 -671 671 0 308 0 307 207 0 208 0 727 -727 c634 -634 729
-725 740 -711 56 70 192 254 223 301 l39 58 -540 540 -539 539 769 2 770 3 12
49 c14 53 49 256 60 343 l7 53 -1939 2 -1939 3 -3 1938 c-2 1837 -3 1937 -20
1936 -9 -1 -60 -7 -112 -15z"/>
<path d="M3880 5451 l0 -1571 1571 0 1571 0 -7 63 c-7 65 -50 310 -64 362 l-7
30 -1302 3 -1302 2 0 370 0 370 1165 0 c641 0 1165 3 1165 8 0 15 -125 231
-196 340 l-74 112 -430 0 -430 0 0 430 0 429 -89 60 c-49 33 -149 94 -222 135
l-134 76 -3 -565 -2 -565 -375 0 -375 0 -2 702 -3 702 -35 8 c-54 12 -309 56
-367 63 l-53 7 0 -1571z"/>
<path d="M7530 5745 l0 -165 293 -2 292 -3 3 -842 2 -843 185 0 185 0 2 843 3
842 293 3 292 2 0 165 0 165 -775 0 -775 0 0 -165z"/>
<path d="M12160 4900 l0 -1010 174 0 175 0 3 438 c4 483 5 492 71 588 86 127
304 153 409 49 70 -70 72 -83 76 -608 l3 -467 177 2 177 3 0 495 c-1 512 -6
589 -44 688 -24 60 -85 141 -137 181 -178 136 -528 112 -688 -46 l-46 -45 0
371 0 371 -175 0 -175 0 0 -1010z"/>
<path d="M15410 5730 l0 -180 175 0 175 0 0 180 0 180 -175 0 -175 0 0 -180z"/>
<path d="M17740 4900 l0 -1010 175 0 175 0 0 218 0 218 63 59 c34 33 78 75 98
93 l37 34 197 -294 c109 -161 205 -301 214 -311 15 -16 37 -17 234 -15 l217 3
-304 430 -304 430 281 277 282 277 -235 1 -235 0 -272 -277 -272 -278 0 578
-1 577 -175 0 -175 0 0 -1010z"/>
<path d="M9581 5340 c-265 -37 -470 -207 -555 -461 -73 -219 -49 -489 61 -689
46 -83 169 -205 248 -247 118 -62 193 -78 360 -78 113 0 166 5 215 18 154 43
302 140 396 260 30 38 54 72 54 77 0 4 -55 49 -121 100 l-122 93 -21 -29 c-54
-76 -122 -136 -195 -172 -73 -36 -77 -37 -190 -37 -100 0 -123 3 -168 24 -94
42 -177 150 -202 262 l-9 39 509 0 509 0 0 114 c0 172 -33 313 -102 434 -43
77 -149 180 -225 220 -116 61 -302 91 -442 72z m171 -291 c76 -16 119 -41 170
-98 47 -52 89 -154 71 -172 -5 -5 -141 -8 -329 -7 l-319 3 3 29 c8 74 85 171
166 211 85 41 155 51 238 34z"/>
<path d="M11177 5340 c-378 -46 -614 -360 -594 -790 11 -222 70 -373 196 -500
136 -138 303 -197 530 -188 89 4 135 11 198 32 151 49 297 169 371 304 l32 60
-146 77 c-80 42 -147 75 -148 73 -2 -1 -14 -23 -26 -48 -68 -135 -182 -199
-331 -187 -203 17 -323 177 -323 432 0 108 16 180 57 258 59 112 158 170 291
170 99 0 164 -25 224 -86 40 -42 92 -128 92 -153 0 -8 3 -14 6 -14 3 0 71 34
150 76 90 47 144 81 144 91 0 37 -69 143 -140 213 -116 116 -248 172 -435 183
-44 3 -110 1 -148 -3z"/>
<path d="M14448 5340 c-110 -19 -238 -83 -286 -145 l-22 -28 0 72 0 71 -180 0
-180 0 0 -710 0 -710 180 0 179 0 3 448 c3 445 3 447 27 507 33 82 99 148 170
169 148 44 286 -8 326 -121 25 -72 34 -250 35 -645 l0 -358 176 0 175 0 -4
533 c-4 568 -5 585 -56 690 -85 176 -303 267 -543 227z"/>
<path d="M16661 5340 c-157 -22 -282 -82 -391 -190 -150 -147 -220 -348 -207
-593 19 -361 223 -617 542 -683 110 -23 302 -15 400 16 130 41 222 97 315 190
47 47 93 99 102 115 l17 31 -116 87 c-63 49 -120 90 -126 92 -7 3 -29 -20 -50
-51 -47 -68 -119 -126 -194 -155 -48 -19 -77 -23 -168 -24 -105 0 -114 2 -177
33 -36 18 -81 49 -99 69 -35 40 -83 138 -94 191 l-7 32 513 0 512 0 -6 138
c-18 438 -233 681 -622 705 -44 3 -109 1 -144 -3z m224 -307 c92 -30 185 -150
185 -240 l0 -23 -325 0 -325 0 0 23 c1 38 39 110 83 155 98 102 237 133 382
85z"/>
<path d="M15410 4600 l0 -710 175 0 175 0 0 710 0 710 -175 0 -175 0 0 -710z"/>
<path d="M10 3123 c1 -35 20 -160 47 -295 l26 -138 606 0 c375 0 620 -4 642
-10 56 -16 101 -51 129 -100 l25 -45 0 -295 0 -295 -563 -3 -562 -2 36 -71
c34 -69 125 -222 195 -326 l34 -52 430 -3 430 -3 3 -430 2 -430 118 -76 c104
-68 314 -189 327 -189 3 0 5 494 5 1098 0 924 -3 1108 -15 1167 -38 183 -176
360 -345 444 -145 71 -141 71 -897 71 -634 0 -673 -1 -673 -17z"/>
<path d="M7720 2090 l0 -1010 186 0 185 0 -3 684 c-2 376 0 682 4 680 3 -2 19
-25 34 -52 15 -26 214 -332 442 -680 l414 -632 172 2 171 3 3 1008 2 1007
-192 0 -191 0 6 -670 c4 -368 5 -670 3 -670 -3 0 -14 17 -27 38 -12 20 -211
322 -442 670 l-420 632 -173 0 -174 0 0 -1010z"/>
<path d="M12240 2740 c0 -198 -3 -360 -6 -360 -4 0 -24 16 -45 35 -95 85 -238
130 -389 122 -205 -12 -362 -101 -469 -267 -87 -134 -124 -278 -124 -480 0
-163 23 -272 84 -399 54 -110 171 -231 271 -279 211 -102 474 -75 638 65 l40
35 0 -66 0 -66 175 0 175 0 0 1010 0 1010 -175 0 -175 0 0 -360z m-223 -531
c182 -69 276 -318 213 -564 -33 -129 -96 -212 -195 -257 -70 -31 -190 -31
-260 0 -136 62 -215 211 -215 407 0 168 60 311 160 380 83 57 198 70 297 34z"/>
<path d="M15622 2093 l3 -1008 178 -3 177 -2 0 1010 0 1010 -180 0 -180 0 2
-1007z"/>
<path d="M20448 2740 l-3 -359 -45 35 c-173 138 -417 162 -627 63 -95 -45
-215 -166 -265 -269 -61 -124 -79 -205 -85 -374 -6 -170 4 -249 48 -370 94
-259 312 -416 579 -416 132 0 265 44 349 117 22 18 42 33 45 33 3 0 6 -27 6
-60 l0 -60 175 0 175 0 0 1010 0 1010 -175 0 -175 0 -2 -360z m-193 -542 c131
-67 205 -215 205 -406 0 -143 -37 -248 -116 -332 -63 -67 -128 -94 -229 -94
-105 0 -167 27 -234 100 -112 122 -141 356 -70 550 28 78 121 172 194 197 73
25 185 18 250 -15z"/>
<path d="M10167 2524 c-256 -46 -465 -243 -534 -504 -25 -93 -25 -348 1 -445
71 -274 257 -453 531 -512 86 -18 280 -12 370 12 92 25 213 88 286 149 59 48
153 156 161 184 3 9 -227 192 -242 192 -4 0 -19 -17 -32 -37 -40 -60 -116
-129 -173 -157 -179 -87 -393 -49 -497 89 -34 45 -78 148 -78 182 0 10 100 13
508 15 l507 3 -1 125 c-5 402 -205 660 -550 710 -91 13 -162 11 -257 -6z m245
-294 c84 -26 142 -76 179 -154 16 -34 29 -73 29 -88 l0 -28 -325 0 c-364 0
-339 -5 -313 71 31 93 123 175 228 203 76 20 127 19 202 -4z"/>
<path d="M13442 2529 c-141 -21 -269 -87 -372 -189 -156 -156 -230 -390 -201
-640 48 -421 338 -670 754 -647 128 7 198 25 313 82 66 32 113 65 168 116 66
62 136 145 136 163 0 3 -55 47 -122 97 l-122 92 -25 -34 c-53 -70 -112 -126
-159 -152 -107 -58 -241 -72 -355 -37 -114 35 -207 141 -236 269 l-9 41 510 0
511 0 -6 148 c-8 240 -65 392 -196 523 -72 72 -171 127 -276 154 -77 20 -232
27 -313 14z m262 -312 c89 -41 159 -132 168 -217 l3 -35 -325 0 -325 0 3 29
c11 101 126 215 249 246 61 15 167 4 227 -23z"/>
<path d="M15151 2524 c-82 -22 -167 -72 -217 -127 l-44 -49 0 81 0 81 -180 0
-180 0 0 -715 0 -715 180 0 180 0 0 373 c0 204 5 401 10 437 15 91 64 187 118
227 59 45 110 58 229 58 l103 0 0 183 0 182 -72 -1 c-40 0 -97 -7 -127 -15z"/>
<path d="M16815 2529 c-293 -32 -477 -187 -492 -418 l-6 -78 134 -7 c74 -4
148 -9 165 -12 31 -6 31 -5 38 47 9 65 25 98 70 137 45 39 101 55 196 56 99 1
160 -18 201 -60 29 -30 34 -42 37 -99 5 -80 21 -72 -250 -119 -244 -43 -331
-66 -421 -113 -163 -86 -241 -253 -207 -443 31 -176 146 -297 326 -345 72 -19
259 -22 341 -5 73 16 158 53 204 90 l36 29 24 -37 c15 -23 43 -47 74 -62 45
-22 62 -25 170 -25 66 0 128 3 138 7 15 6 17 23 17 128 l0 120 -39 0 c-24 0
-44 6 -52 17 -11 13 -15 104 -19 457 l-5 441 -29 63 c-51 109 -153 183 -301
215 -92 20 -250 27 -350 16z m345 -877 c0 -165 -35 -238 -137 -289 -52 -25
-68 -28 -158 -28 -91 0 -104 3 -146 27 -56 33 -81 80 -81 151 0 99 54 134 284
183 90 19 177 38 193 43 17 5 33 10 38 10 4 1 7 -43 7 -97z"/>
<path d="M18520 2524 c-85 -18 -178 -64 -229 -114 -23 -22 -43 -40 -46 -40 -3
0 -5 32 -5 70 l0 70 -175 0 -175 0 0 -715 0 -715 175 0 175 0 0 398 c0 220 5
426 10 462 14 84 61 181 108 220 106 88 313 77 382 -20 52 -73 54 -91 58 -593
l3 -467 177 2 177 3 3 415 c4 626 -10 747 -106 871 -108 142 -313 201 -532
153z"/>
</g>
</svg>
