<svg id="a" xmlns="http://www.w3.org/2000/svg" viewBox="0 0 119.62 38.65">
    <path
        d="M0,38.23v.08H10.71s1.3-18.9,1.3-18.9L3.03,15.93,0,38.23ZM14.4,20.34l4.59,1.78-.46,16.21h-5.39s1.26-17.99,1.26-17.99Zm6.55,17.99h18.16s-3.82-23.91-3.82-23.91l-13.85,7.6-.49,16.3Z"
        fill="#bed73b" fill-rule="evenodd"></path>
    <path
        d="M12.19,16.83l-7.98-3.09L13.29,1.08l-1.1,15.75ZM15.82,0l-1.24,17.76,5.57,2.16,14-7.68L15.82,0Zm28.57,17.08v3.21h6.22v18.35h3.88V20.29h5.73l1-3.21h-16.83Zm63.76,0v21.56h11.46v-3.21h-7.57V17.08h-3.89Zm-45.22,.01h4.66l5.39,11.88c.41-1.21,5.32-11.88,5.32-11.88h4.63l-9.97,21.52-10.03-21.52Zm22.19,0h4.66l5.39,11.88c.41-1.21,5.32-11.88,5.32-11.88h4.63l-9.97,21.52-10.03-21.52Z"
        fill="#4d4d4d" fill-rule="evenodd"></path>
</svg>